<?xml version='1.0' encoding='utf-8'?>
<svg xmlns="http://www.w3.org/2000/svg" width="307.9px" height="217.01px" enable-background="new -11.327 34.179 307.897 217.011" version="1.1" viewBox="-11.327 34.179 307.897 217.011">
			<radialGradient id="ak" cx="745.49" cy="-1008.2" r="47.449" gradientTransform="matrix(.7868 0 0 -.7868 -429.93 -599.05)" gradientUnits="userSpaceOnUse">
			<stop stop-color="#FAA21B" offset="0"/>
			<stop stop-color="#FEEC22" offset="1"/>
		</radialGradient>
		<path d="m137.27 194.96c4.94 1.898 4.56 6.459-1.14 9.879s-34.958 19.379-33.438 46.356c0 0-0.76-24.317 28.877-34.579 29.639-10.26 60.414-18.996 61.936-35.336" fill="url(#ak)"/>
			<radialGradient id="av" cx="579.63" cy="-952.19" r="74.492" gradientTransform="matrix(.7868 0 0 -.7868 -429.93 -599.05)" gradientUnits="userSpaceOnUse">
			<stop stop-color="#FAA21B" offset="0"/>
			<stop stop-color="#FEEC22" offset="1"/>
		</radialGradient>
		<path d="m35.493 136.79c-3.28-0.926-6.703-2.26-9.177-4.152-6.46-4.939-28.878-24.697-34.958-26.217-6.079-1.52-0.76 3.42 5.319 11.02 6.08 7.599 11.4 26.217 12.16 29.258 0.76 3.038-4.939 22.036-6.458 25.457-1.521 3.42-0.381 6.459 7.979 2.278 5.242-2.62 18.698-8.078 28.851-12.065 0.219-8.827-0.394-17.631-3.716-25.579z" fill="url(#av)"/>
			<radialGradient id="be" cx="707.32" cy="-912.56" r="109.15" gradientTransform="matrix(.7868 0 0 -.7868 -429.93 -599.05)" gradientUnits="userSpaceOnUse">
			<stop stop-color="#FAA21B" offset="0"/>
			<stop stop-color="#FEEC22" offset="1"/>
		</radialGradient>
		<path d="m294.95 129.22c-3.037-1.14 1.838-6.814-3.42-5.699-12.537 2.66-35.054 0.626-43.806-4.957-9.959-7.092-28.009-41.019-51.565-61.538-23.559-20.519-45.218-24.698-67.255-22.038-22.038 2.659-82.453 0-94.232-0.76-11.779-0.761-31.916 7.22-36.477 26.218-4.56 18.998 7.979 26.598 23.558 48.635 15.579 22.039 14.439 26.978 23.939 29.637 0 0-4.918-0.438-10.202-1.928 3.322 7.948 3.935 16.75 3.715 25.579 6.039-2.373 10.91-4.229 12.187-4.652 0 0-4.56 2.66-2.28 6.462 2.28 3.799 7.22 23.178 6.46 31.536s0.379 18.619 24.317 18.998 49.017-11.397 62.315-16.719c13.298-5.32 37.237-3.803 53.957-11.779 16.717-7.979 24.316-17.479 34.955-23.557 10.639-6.08 14.061-14.061 31.538-21.281 17.479-7.219 26.218-6.84 30.017-6.84 3.8 3e-3 5.32-4.176 2.279-5.317z" fill="url(#be)"/>
			<radialGradient id="bf" cx="737.15" cy="-1003.6" r="40.048" gradientTransform="matrix(.7868 0 0 -.7868 -429.93 -599.05)" gradientUnits="userSpaceOnUse">
			<stop stop-color="#8C2A1C" offset="0"/>
			<stop stop-color="#270E11" offset="1"/>
		</radialGradient>
		<path d="m118.18 52.744c4.935 3.879 12.337 10.575 14.453 25.381 2.115 14.807 15.159 86.367 16.569 92.007 1.409 5.642 2.115 18.33 1.061 21.504-1.059 3.173 16.566-25.383 16.566-25.383l-32.786-111.39" enable-background="new    " fill="url(#bf)" opacity=".25"/>
				<radialGradient id="a" cx="721.89" cy="-902.24" r="124.87" gradientTransform="matrix(.7868 0 0 -.7868 -429.93 -599.05)" gradientUnits="userSpaceOnUse">
				<stop stop-color="#FCF5B1" offset="0"/>
				<stop stop-color="#fff" offset="1"/>
			</radialGradient>
			<path d="m196.16 186.21c10.088-4.813 16.854-10.178 22.971-15.014 4.182-8.656 7.953-18.189 7.22-20.396-0.96-2.883-9.604-21.606-8.843-25.359 0.766-3.753-7.482-22.176-12.284-37.54-3.295-10.542-13.597-28.767-19.737-39.171-5.846-3.997-11.593-7.039-17.273-9.273 7.412 16.673 11.963 35.898 16.848 48.924 5.761 15.365 14.885 61.458 15.363 73.94 0.354 9.178-4.221 19.903-6.67 24.944 0.81-0.331 1.618-0.68 2.405-1.055z" fill="url(#a)"/>
				<radialGradient id="bg" cx="809.72" cy="-998.26" r="49.224" gradientTransform="matrix(.7868 0 0 -.7868 -429.93 -599.05)" gradientUnits="userSpaceOnUse">
				<stop stop-color="#8C2A1C" offset="0"/>
				<stop stop-color="#270E11" offset="1"/>
			</radialGradient>
			<path d="m218.58 122.26c0.875-4.016-8.813-23.005-13.979-38.895-2.744-8.434-11.562-23.073-18.507-34.21-6.146-4.268-12.182-7.477-18.146-9.796 12.743 28.919 30.02 110.8 30.315 124.99 0.159 7.602-2.813 16.561-5.681 23.387 1.227-0.468 2.424-0.971 3.586-1.525 11.41-5.443 18.571-11.6 25.354-16.891 4.704-11.842 7.968-15.977 5.312-19.883-1.829-2.682-9.135-23.131-8.254-27.178z" enable-background="new    " fill="url(#bg)" opacity=".53"/>
			<path d="m196.16 186.21c10.088-4.813 16.854-10.178 22.971-15.014 4.182-8.656 7.953-18.189 7.22-20.396-0.96-2.883-9.604-21.606-8.843-25.359 0.766-3.753-7.482-22.176-12.284-37.54-3.295-10.542-13.597-28.767-19.737-39.171-5.846-3.997-11.593-7.039-17.273-9.273 14.42 23.467 31.731 110.38 32.211 122.86 0.354 9.178-4.221 19.904-6.67 24.945 0.81-0.333 1.618-0.682 2.405-1.057z" fill="url(#a)"/>
				<radialGradient id="bh" cx="870.05" cy="-967.86" r="77.03" gradientTransform="matrix(.7868 0 0 -.7868 -429.93 -599.05)" gradientUnits="userSpaceOnUse">
				<stop stop-color="#8C2A1C" offset="0"/>
				<stop stop-color="#270E11" offset="1"/>
			</radialGradient>
			<path d="m263.08 129.56c-14.299-1.885-23.92-8.007-35.729-28.617-6.234-10.893-12.809-21.576-18.609-31.113-4.056-4.671-8.273-9.051-12.584-12.806-1.009-0.876-2.011-1.712-3.01-2.529 11.378 15 25.529 48.368 27.104 52.037 1.57 3.661-1.504 7.494 1.617 11.08 3.104 3.57 9.733 12.702 10.312 25.271 0.573 12.533 0.603 17.238-1.922 20.031-0.146 0.168-0.315 0.354-0.479 0.541 0.441-0.271 0.881-0.543 1.332-0.801 10.639-6.08 14.059-14.061 31.537-21.281 4.768-1.968 8.86-3.357 12.403-4.357 5.062-1.825 8.938-2.709 11.887-3.163-0.269-1.642-0.672-3.321-1.223-4.933-7.318 1.825-16.294 1.476-22.636 0.64z" enable-background="new    " fill="url(#bh)" opacity=".53"/>
				<radialGradient id="bi" cx="864.92" cy="-919.74" r="47.216" gradientTransform="matrix(.7868 0 0 -.7868 -429.93 -599.05)" gradientUnits="userSpaceOnUse">
				<stop stop-color="#FCF5B1" offset="0"/>
				<stop stop-color="#fff" offset="1"/>
			</radialGradient>
			<path d="m262.66 141.38c17.479-7.219 26.219-6.84 30.018-6.84 3.803 0 5.32-4.179 2.279-5.319-2.263-0.849-0.139-4.212-1.078-5.413-8.375 2.209-21.629 5.01-30.555 3.47-13.923-2.401-23.525-6.242-34.57-25.447-5.856-10.191-11.979-20.099-17.306-28.816-4.864-5.857-10.006-11.391-15.282-15.986-0.172-0.148-0.34-0.288-0.511-0.435 8.435 12.334 25.897 45.718 27.337 49.078 1.44 3.361-1.439 6.722 1.44 10.083 2.881 3.361 8.161 12.964 8.643 24.488 0.479 11.523 0.479 15.843-1.92 18.245-1.632 1.634-4.149 4.376-5.144 7.474 1.658-1.176 3.34-2.289 5.109-3.301 10.641-6.082 14.061-14.06 31.54-21.281z" fill="url(#bi)"/>
			<radialGradient id="bj" cx="590.64" cy="-947.32" r="23.086" gradientTransform="matrix(.7868 0 0 -.7868 -429.93 -599.05)" gradientUnits="userSpaceOnUse">
			<stop stop-color="#FCF5B1" offset="0"/>
			<stop stop-color="#fff" offset="1"/>
		</radialGradient>
		<path d="m32.628 135.88c-2.32-0.834-4.556-1.892-6.312-3.236-0.617-0.472-1.383-1.081-2.263-1.794-0.794 1.576-1.452 3.302-0.807 4.595 6.471 9.345 7.559 21.384 4.069 31.681 3.922-1.597 7.953-3.203 11.585-4.632 0.59-9.206-1.66-18.391-6.272-26.614z" fill="url(#bj)"/>
			<radialGradient id="bk" cx="601.14" cy="-966.71" r="32.7" gradientTransform="matrix(.7868 0 0 -.7868 -429.93 -599.05)" gradientUnits="userSpaceOnUse">
			<stop stop-color="#8C2A1C" offset="0"/>
			<stop stop-color="#270E11" offset="1"/>
		</radialGradient>
		<path d="m42.117 138.24c-2.551-0.416-6.112-1.153-9.489-2.367 4.612 8.222 6.862 17.409 6.273 26.614 3.892-1.529 7.323-2.854 9.652-3.729 2.366-7.288-0.423-15.527-6.436-20.518z" fill="url(#bk)"/>
			<radialGradient id="bl" cx="722.05" cy="-902.21" r="124.79" gradientTransform="matrix(.7868 0 0 -.7868 -429.93 -599.05)" gradientUnits="userSpaceOnUse">
			<stop stop-color="#FCF5B1" offset="0"/>
			<stop stop-color="#fff" offset="1"/>
		</radialGradient>
		<path d="m185.06 148.4c0-3.361-11.044-56.178-16.324-74.903-5.28-18.726-10.563-29.288-26.409-30.249-8.635-0.522-31.098-4.041-49.757-7.133-24.13-0.195-50.524-1.414-57.892-1.89-11.779-0.761-31.916 7.22-36.477 26.218-4.56 18.998 7.979 26.598 23.558 48.635 15.579 22.039 14.439 26.978 23.939 29.637 0 0-1.435-0.128-3.578-0.477 6.013 4.992 8.802 13.23 6.437 20.515 1.367-0.519 2.361-0.879 2.841-1.041 0 0-4.56 2.66-2.28 6.461 2.28 3.799 7.22 23.178 6.46 31.537-0.659 7.244 0.121 15.912 15.923 18.344-17.535-7.157-8.531-25.571-18-48.85-4.697-11.547 0.961-23.527-5.762-26.891-6.722-3.361-12.003-19.686-25.448-37.931-13.445-18.241-17.767-30.726-6.243-47.531 1.785-2.603 4.944-4.849 9.005-6.787 16.833 4.392 45.454 16.904 50.054 23.592 5.281 7.683 10.563 48.014 11.043 56.177s5.762 39.853 11.043 51.854c4.357 9.904 6.427 27.961 7.827 33.717 11.381-2.889 21.941-7.13 30.138-10.516 1.612-6.615 1.164-18.324 0.447-26.561-0.96-11.045-10.083-47.538-12.004-67.224-1.92-19.686-11.523-46.573-23.527-53.296-10.604-5.938-36.202-7.382-64.536-11.61 9.131-2.657 19.993-4.459 29.988-5.672 16.899 4.712 38.515 10.818 47.512 13.922 13.924 4.801 18.726 16.805 21.126 26.408 2.401 9.603 13.444 72.021 16.805 92.667 2.31 14.182-2.403 23.146-5.581 27.376 9.01-2.668 21.456-3.263 33.329-5.457 17.207-7.057 6.343-39.706 6.343-43.041z" fill="url(#bl)"/>
			<radialGradient id="bm" cx="629.66" cy="-950.79" r="61.573" gradientTransform="matrix(.7868 0 0 -.7868 -429.93 -599.05)" gradientUnits="userSpaceOnUse">
			<stop stop-color="#FCF5B1" offset="0"/>
			<stop stop-color="#fff" offset="1"/>
		</radialGradient>
		<path d="m64.54 127.28c-2.965-12.846-5.281-19.206-16.805-27.368-11.523-8.162-12.963-0.479-8.643 5.282 4.321 5.762 18.246 34.57 18.726 48.495 0.479 13.924 16.325 31.209 16.325 39.851 0 8.646 3.841 10.086 4.801 1.922 0.96-8.162-6.242-21.125-6.242-30.248s-5.28-25.45-8.162-37.934z" fill="url(#bm)"/>
				<linearGradient id="bn" x1="526.45" x2="542.14" y1="675.81" y2="686.37" gradientTransform="translate(-311.86 -558.92)" gradientUnits="userSpaceOnUse">
				<stop stop-color="#8C2A1C" offset="0"/>
				<stop stop-color="#270E11" offset="1"/>
			</linearGradient>
			<path d="m231.17 118.6c2.09 4.642 0.019 10.098-4.627 12.184s-10.102 0.015-12.187-4.628c-2.089-4.643-0.017-10.099 4.627-12.186 4.644-2.086 10.101-0.015 12.187 4.63z" fill="url(#bn)"/>
				<radialGradient id="bo" cx="540.72" cy="-1317.1" r="17.929" gradientTransform="matrix(.6441 -.2895 -.2895 -.6441 -507.78 -563.61)" gradientUnits="userSpaceOnUse">
				<stop stop-color="#DAEFEB" offset="0"/>
				<stop stop-color="#fff" offset="1"/>
			</radialGradient>
			<path d="m229.59 119.31c1.697 3.772 0.013 8.205-3.764 9.899-3.771 1.699-8.203 0.013-9.9-3.758-1.696-3.774-0.012-8.208 3.76-9.904 3.777-1.695 8.207-0.013 9.904 3.763z" fill="url(#bo)"/>
				<radialGradient id="bp" cx="536.79" cy="682.34" r="7.3844" gradientTransform="translate(-311.86 -558.92)" gradientUnits="userSpaceOnUse">
				<stop stop-color="#571B16" offset="0"/>
				<stop stop-color="#A1621B" offset="1"/>
			</radialGradient>
			<path d="m229.31 120.13c1.468 3.266 0.011 7.098-3.246 8.56-3.267 1.468-7.094 0.012-8.56-3.248-1.467-3.262-0.014-7.095 3.25-8.56 3.262-1.467 7.094-9e-3 8.556 3.248z" fill="url(#bp)"/>
			<path d="m221.87 121.23c1.42-1.863 4.075-2.226 5.938-0.81 1.866 1.421 2.228 4.081 0.808 5.947-1.414 1.86-4.072 2.224-5.939 0.805-1.865-1.416-2.227-4.078-0.807-5.942z" fill="#000002"/>
			<path d="m226.12 120.11c0.34 0.739 0.02 1.616-0.724 1.956-0.737 0.342-1.616 0.016-1.957-0.721-0.341-0.744-0.017-1.62 0.726-1.962 0.739-0.34 1.613-0.016 1.955 0.727z" fill="#fff"/>
				<radialGradient id="bq" cx="-98.99" cy="460.92" r="4.5978" gradientTransform="matrix(1.4595 -3.3913 3.3909 1.4601 -1208 -861.04)" gradientUnits="userSpaceOnUse">
				<stop stop-color="#F9C7D6" offset="0"/>
				<stop stop-color="#fff" stop-opacity="0" offset="1"/>
			</radialGradient>
			<path d="m216.43 131.86c-8.671-3.813-18.347 0.226-21.61 8.963-3.246 8.684 1.063 18.766 9.619 22.575 8.578 3.82 18.251-0.071 21.609-8.749 3.378-8.733-0.927-18.96-9.618-22.789z" fill="url(#bq)"/>
				<radialGradient id="br" cx="-97.726" cy="461.66" r="2.3396" gradientTransform="matrix(1.4595 -3.3913 3.3909 1.4601 -1208 -861.04)" gradientUnits="userSpaceOnUse">
				<stop stop-color="#F9C7D6" offset="0"/>
				<stop stop-color="#fff" stop-opacity="0" offset="1"/>
			</radialGradient>
			<path d="m217.88 136.41c-4.402-1.939-9.33 0.103-11.006 4.543-1.672 4.422 0.515 9.571 4.883 11.51 4.371 1.938 9.301-0.063 11.002-4.488 1.711-4.439-0.474-9.625-4.879-11.565z" fill="url(#br)"/>
			<radialGradient id="bs" cx="726.74" cy="-890.03" r="128.68" gradientTransform="matrix(.7868 0 0 -.7868 -429.93 -599.05)" gradientUnits="userSpaceOnUse">
			<stop stop-color="#FFC810" offset="0"/>
			<stop stop-color="#fff" offset="1"/>
		</radialGradient>
		<path d="m78.417 87.142c6.762-6.155 57.42-17.498 122.41 9.913-64.072-31.445-116.36-20.527-122.41-9.913z" enable-background="new    " fill="url(#bs)" opacity=".48"/>
			<radialGradient id="al" cx="724.46" cy="-882.71" r="128.18" gradientTransform="matrix(.7868 0 0 -.7868 -429.93 -599.05)" gradientUnits="userSpaceOnUse">
			<stop stop-color="#FFC810" offset="0"/>
			<stop stop-color="#fff" offset="1"/>
		</radialGradient>
		<path d="m76.923 77.005c5.779-6.124 52.519-18.072 121.82 13.578-68.35-36.039-116.65-24.211-121.82-13.578z" enable-background="new    " fill="url(#al)" opacity=".33"/>
			<radialGradient id="am" cx="726.75" cy="-890.03" r="128.67" gradientTransform="matrix(.7868 0 0 -.7868 -429.93 -599.05)" gradientUnits="userSpaceOnUse">
			<stop stop-color="#FFC810" offset="0"/>
			<stop stop-color="#fff" offset="1"/>
		</radialGradient>
		<path d="m79.796 95.984c6.821-6.015 59.564-16.092 123.67 8.049-60.917-27.823-117.57-18.566-123.67-8.049z" enable-background="new    " fill="url(#am)" opacity=".73"/>
			<radialGradient id="an" cx="726.75" cy="-889.98" r="128.68" gradientTransform="matrix(.7868 0 0 -.7868 -429.93 -599.05)" gradientUnits="userSpaceOnUse">
			<stop stop-color="#FFC810" offset="0"/>
			<stop stop-color="#fff" offset="1"/>
		</radialGradient>
		<path d="m81.543 105.91c9.066-6.252 67.212-16.568 122.86 4.377-54.708-24.384-114.73-15.006-122.86-4.377z" fill="url(#an)"/>
			<radialGradient id="ao" cx="726.75" cy="-889.73" r="128.77" gradientTransform="matrix(.7868 0 0 -.7868 -429.93 -599.05)" gradientUnits="userSpaceOnUse">
			<stop stop-color="#FFC810" offset="0"/>
			<stop stop-color="#fff" offset="1"/>
		</radialGradient>
		<path d="m83.419 114.66c9.066-6.252 68.775-16.569 122.86 0.625-50.957-20.32-114.73-11.254-122.86-0.625z" fill="url(#ao)"/>
			<radialGradient id="ap" cx="743.49" cy="-1121.3" r="139.82" gradientTransform="matrix(.7888 -.065 .0116 -.6827 -431.58 -616)" gradientUnits="userSpaceOnUse">
			<stop stop-color="#FFC810" offset="0"/>
			<stop stop-color="#fff" offset="1"/>
		</radialGradient>
		<path d="m86.974 124.13c7.847-6.3 62.951-20.972 118.06-1.892-53.383-22.982-110.62-8.553-118.06 1.892z" fill="url(#ap)"/>
			<radialGradient id="aq" cx="743.5" cy="-1121.3" r="139.84" gradientTransform="matrix(.7888 -.065 .0116 -.6827 -431.58 -616)" gradientUnits="userSpaceOnUse">
			<stop stop-color="#FFC810" offset="0"/>
			<stop stop-color="#fff" offset="1"/>
		</radialGradient>
		<path d="m87.876 131.95c7.759-6.009 63.663-19.59 117.58-4.312-50.023-18.874-110.22-5.724-117.58 4.312z" enable-background="new    " fill="url(#aq)" opacity=".73"/>
			<radialGradient id="ar" cx="743.5" cy="-1120.7" r="140.35" gradientTransform="matrix(.7888 -.065 .0116 -.6827 -431.58 -616)" gradientUnits="userSpaceOnUse">
			<stop stop-color="#FFC810" offset="0"/>
			<stop stop-color="#fff" offset="1"/>
		</radialGradient>
		<path d="m89.06 140.38c9.973-6.258 69.865-20.4 115.54-7.898-44.081-15.58-106.17-2.089-115.54 7.898z" enable-background="new    " fill="url(#ar)" opacity=".48"/>
			<radialGradient id="as" cx="743.5" cy="-1121.1" r="139.98" gradientTransform="matrix(.7888 -.065 .0116 -.6827 -431.58 -616)" gradientUnits="userSpaceOnUse">
			<stop stop-color="#FFC810" offset="0"/>
			<stop stop-color="#fff" offset="1"/>
		</radialGradient>
		<path d="m90.407 147.48c9.796-6.111 70.072-20.34 114.48-11.316-40.823-11.921-105.27 1.612-114.48 11.316z" enable-background="new    " fill="url(#as)" opacity=".3"/>
			<radialGradient id="at" cx="811.18" cy="-478.31" r="38.478" gradientTransform="matrix(.8724 .3306 .3174 -.8376 -499.1 -578.78)" gradientUnits="userSpaceOnUse">
			<stop stop-color="#8C2A1C" offset="0"/>
			<stop stop-color="#270E11" offset="1"/>
		</radialGradient>
		<path d="m73.007 88.653c-2.256 5.955-11.394 8.015-20.407 4.6-9.013-3.416-14.491-11.014-12.233-16.97s11.394-8.015 20.407-4.599c9.013 3.417 14.49 11.013 12.233 16.969z" fill="url(#at)"/>
			<radialGradient id="au" cx="887.75" cy="-548.59" r="15.183" gradientTransform="matrix(.8008 .2943 .2913 -.7455 -487.59 -587.19)" gradientUnits="userSpaceOnUse">
			<stop stop-color="#FCF5B1" offset="0"/>
			<stop stop-color="#fff" offset="1"/>
		</radialGradient>
		<path d="m70.838 87.36c-2.072 5.303-10.458 7.136-18.734 4.095-8.273-3.04-13.301-9.803-11.23-15.105 2.073-5.302 10.46-7.135 18.733-4.094 8.275 3.04 13.303 9.803 11.231 15.104z" fill="url(#au)"/>
			<radialGradient id="aw" cx="1155.1" cy="-746.25" r="24.17" gradientTransform="matrix(.6151 .2343 .2238 -.5936 -487.79 -622.22)" gradientUnits="userSpaceOnUse">
			<stop stop-color="#8C2A1C" offset="0"/>
			<stop stop-color="#270E11" offset="1"/>
		</radialGradient>
		<path d="m66.442 86.909c-1.592 4.222-8.034 5.682-14.39 3.261s-10.217-7.806-8.626-12.026c1.592-4.223 8.035-5.681 14.389-3.261 6.355 2.422 10.219 7.805 8.627 12.026z" enable-background="new    " fill="url(#aw)" opacity=".4"/>
			<radialGradient id="ax" cx="1364.7" cy="-965.75" r="22.872" gradientTransform="matrix(.5092 .1857 .1852 -.4704 -462.3 -619)" gradientUnits="userSpaceOnUse">
			<stop stop-color="#8C2A1C" offset="0"/>
			<stop stop-color="#270E11" offset="1"/>
		</radialGradient>
		<path d="m62.163 85.335c-1.248 3.167-6.293 4.261-11.272 2.445-4.978-1.814-8.003-5.854-6.757-9.02 1.246-3.165 6.292-4.259 11.271-2.444 4.979 1.816 8.005 5.854 6.758 9.019z" fill="url(#ax)"/>
				<radialGradient id="ay" cx="575.3" cy="-823.17" r="47.135" gradientTransform="matrix(.7868 0 0 -.7868 -429.93 -599.05)" gradientUnits="userSpaceOnUse">
				<stop stop-color="#FAA21B" offset="0"/>
				<stop stop-color="#FEEC22" offset="1"/>
			</radialGradient>
			<path d="M8.377,43.837c-1.119,0.979-2.188,2.031-3.187,3.167l21.311-3.167H8.377z" fill="url(#ay)"/>
				<radialGradient id="az" cx="575.3" cy="-823.17" r="47.158" gradientTransform="matrix(.7868 0 0 -.7868 -429.93 -599.05)" gradientUnits="userSpaceOnUse">
				<stop stop-color="#FAA21B" offset="0"/>
				<stop stop-color="#FEEC22" offset="1"/>
			</radialGradient>
			<path d="m0.586 53.849c-0.248 0.499-0.483 1.009-0.706 1.528l11.67-1.374-10.964-0.154z" fill="url(#az)"/>
				<radialGradient id="ba" cx="575.3" cy="-823.18" r="47.146" gradientTransform="matrix(.7868 0 0 -.7868 -429.93 -599.05)" gradientUnits="userSpaceOnUse">
				<stop stop-color="#FAA21B" offset="0"/>
				<stop stop-color="#FEEC22" offset="1"/>
			</radialGradient>
			<path d="m3.313 49.356c-0.407 0.559-0.796 1.134-1.17 1.726l15.188-1.862-14.018 0.136z" fill="url(#ba)"/>
				<radialGradient id="bb" cx="575.3" cy="-823.18" r="47.144" gradientTransform="matrix(.7868 0 0 -.7868 -429.93 -599.05)" gradientUnits="userSpaceOnUse">
				<stop stop-color="#FAA21B" offset="0"/>
				<stop stop-color="#FEEC22" offset="1"/>
			</radialGradient>
			<path d="m-1.756 60.276c-0.014 0.058-0.032 0.112-0.046 0.171-0.145 0.605-0.272 1.198-0.383 1.781l8.552-2.644-8.123 0.692z" fill="url(#bb)"/>
				<radialGradient id="bc" cx="575.3" cy="-823.18" r="47.148" gradientTransform="matrix(.7868 0 0 -.7868 -429.93 -599.05)" gradientUnits="userSpaceOnUse">
				<stop stop-color="#FAA21B" offset="0"/>
				<stop stop-color="#FEEC22" offset="1"/>
			</radialGradient>
			<path d="M15.642,38.853c-1.72,0.915-3.403,1.97-5.01,3.166l23.047-3.166H15.642z" fill="url(#bc)"/>
				<radialGradient id="bd" cx="575.3" cy="-823.17" r="47.142" gradientTransform="matrix(.7868 0 0 -.7868 -429.93 -599.05)" gradientUnits="userSpaceOnUse">
				<stop stop-color="#FAA21B" offset="0"/>
				<stop stop-color="#FEEC22" offset="1"/>
			</radialGradient>
			<path d="m23.394 35.683c-2.07 0.609-4.172 1.412-6.242 2.405l23.503-1.428-17.261-0.977z" fill="url(#bd)"/>
</svg>